<mxfile host="app.diagrams.net" modified="2023-06-06T06:19:44.224Z" agent="5.0 (Macintosh; Intel Mac OS X 10_15_7) AppleWebKit/537.36 (KHTML, like Gecko) Chrome/113.0.0.0 Safari/537.36" etag="xXNo5_Z27ln4VzlXWEtj" version="20.0.4" type="github">
  <diagram id="IUPOplyhM7PHTuhLiW1y" name="Page-1">
    <mxGraphModel dx="2066" dy="2211" grid="1" gridSize="10" guides="1" tooltips="1" connect="1" arrows="1" fold="1" page="1" pageScale="1" pageWidth="827" pageHeight="1169" math="0" shadow="0">
      <root>
        <mxCell id="0" />
        <mxCell id="1" parent="0" />
        <mxCell id="AsPUvt-eo6z5Frqtc9Gu-1" value="" style="rounded=0;whiteSpace=wrap;html=1;fillColor=#ffe6cc;strokeColor=#d79b00;" parent="1" vertex="1">
          <mxGeometry x="400" y="200" width="220" height="40" as="geometry" />
        </mxCell>
        <mxCell id="AsPUvt-eo6z5Frqtc9Gu-2" value="L1" style="text;html=1;strokeColor=none;fillColor=none;align=center;verticalAlign=middle;whiteSpace=wrap;rounded=0;" parent="1" vertex="1">
          <mxGeometry x="350" y="210" width="40" height="20" as="geometry" />
        </mxCell>
        <mxCell id="AsPUvt-eo6z5Frqtc9Gu-3" value="L2A" style="text;html=1;strokeColor=none;fillColor=none;align=center;verticalAlign=middle;whiteSpace=wrap;rounded=0;" parent="1" vertex="1">
          <mxGeometry x="350" y="150" width="40" height="20" as="geometry" />
        </mxCell>
        <mxCell id="AsPUvt-eo6z5Frqtc9Gu-4" value="" style="rounded=0;whiteSpace=wrap;html=1;fillColor=#ffe6cc;strokeColor=#d79b00;" parent="1" vertex="1">
          <mxGeometry x="400" y="140" width="220" height="40" as="geometry" />
        </mxCell>
        <mxCell id="AsPUvt-eo6z5Frqtc9Gu-5" value="L2B" style="text;html=1;strokeColor=none;fillColor=none;align=center;verticalAlign=middle;whiteSpace=wrap;rounded=0;" parent="1" vertex="1">
          <mxGeometry x="350" y="90" width="40" height="20" as="geometry" />
        </mxCell>
        <mxCell id="AsPUvt-eo6z5Frqtc9Gu-6" value="" style="rounded=0;whiteSpace=wrap;html=1;fillColor=#ffe6cc;strokeColor=#d79b00;" parent="1" vertex="1">
          <mxGeometry x="400" y="80" width="220" height="40" as="geometry" />
        </mxCell>
        <mxCell id="AsPUvt-eo6z5Frqtc9Gu-7" value="L3" style="text;html=1;strokeColor=none;fillColor=none;align=center;verticalAlign=middle;whiteSpace=wrap;rounded=0;" parent="1" vertex="1">
          <mxGeometry x="350" y="30" width="40" height="20" as="geometry" />
        </mxCell>
        <mxCell id="AsPUvt-eo6z5Frqtc9Gu-8" value="分析主题表（计算结果）" style="rounded=0;whiteSpace=wrap;html=1;fillColor=#e1d5e7;strokeColor=#9673a6;" parent="1" vertex="1">
          <mxGeometry x="400" y="20" width="220" height="40" as="geometry" />
        </mxCell>
        <mxCell id="AsPUvt-eo6z5Frqtc9Gu-9" value="&lt;br&gt;&lt;br&gt;doris（&lt;font color=&quot;#ff0000&quot;&gt;现场计算&lt;/font&gt;）" style="shape=cylinder2;whiteSpace=wrap;html=1;boundedLbl=1;backgroundOutline=1;size=15;fillColor=#dae8fc;strokeColor=#6c8ebf;" parent="1" vertex="1">
          <mxGeometry x="400" y="-60" width="220" height="60" as="geometry" />
        </mxCell>
        <mxCell id="AsPUvt-eo6z5Frqtc9Gu-10" value="配置+报表应用" style="ellipse;shape=cloud;whiteSpace=wrap;html=1;fillColor=#dae8fc;strokeColor=#6c8ebf;" parent="1" vertex="1">
          <mxGeometry x="390" y="-130" width="230" height="60" as="geometry" />
        </mxCell>
        <mxCell id="AsPUvt-eo6z5Frqtc9Gu-11" value="L1" style="text;html=1;strokeColor=none;fillColor=none;align=center;verticalAlign=middle;whiteSpace=wrap;rounded=0;" parent="1" vertex="1">
          <mxGeometry x="710" y="210" width="40" height="20" as="geometry" />
        </mxCell>
        <mxCell id="AsPUvt-eo6z5Frqtc9Gu-12" value="L2A" style="text;html=1;strokeColor=none;fillColor=none;align=center;verticalAlign=middle;whiteSpace=wrap;rounded=0;" parent="1" vertex="1">
          <mxGeometry x="710" y="150" width="40" height="20" as="geometry" />
        </mxCell>
        <mxCell id="AsPUvt-eo6z5Frqtc9Gu-13" value="L2B" style="text;html=1;strokeColor=none;fillColor=none;align=center;verticalAlign=middle;whiteSpace=wrap;rounded=0;" parent="1" vertex="1">
          <mxGeometry x="710" y="90" width="40" height="20" as="geometry" />
        </mxCell>
        <mxCell id="AsPUvt-eo6z5Frqtc9Gu-14" value="&lt;br&gt;&lt;br&gt;doris（&lt;font color=&quot;#ff0000&quot;&gt;现场计算&lt;/font&gt;）" style="shape=cylinder2;whiteSpace=wrap;html=1;boundedLbl=1;backgroundOutline=1;size=15;fillColor=#dae8fc;strokeColor=#6c8ebf;" parent="1" vertex="1">
          <mxGeometry x="770" y="-60" width="220" height="120" as="geometry" />
        </mxCell>
        <mxCell id="AsPUvt-eo6z5Frqtc9Gu-15" value="配置+报表应用" style="ellipse;shape=cloud;whiteSpace=wrap;html=1;fillColor=#dae8fc;strokeColor=#6c8ebf;" parent="1" vertex="1">
          <mxGeometry x="760" y="-130" width="230" height="60" as="geometry" />
        </mxCell>
        <mxCell id="AsPUvt-eo6z5Frqtc9Gu-16" value="&lt;b&gt;&lt;font style=&quot;font-size: 15px&quot;&gt;场景一：spark预计算&lt;/font&gt;&lt;/b&gt;&lt;b&gt;&lt;font style=&quot;font-size: 15px&quot;&gt;&lt;br&gt;&lt;/font&gt;&lt;/b&gt;" style="text;html=1;strokeColor=none;fillColor=none;align=center;verticalAlign=middle;whiteSpace=wrap;rounded=0;" parent="1" vertex="1">
          <mxGeometry x="425" y="-230" width="160" height="20" as="geometry" />
        </mxCell>
        <mxCell id="AsPUvt-eo6z5Frqtc9Gu-17" value="&lt;font style=&quot;font-size: 15px&quot;&gt;&lt;b&gt;场景二：doris部分现场计算&lt;/b&gt;&lt;br&gt;&lt;/font&gt;" style="text;html=1;strokeColor=none;fillColor=none;align=center;verticalAlign=middle;whiteSpace=wrap;rounded=0;" parent="1" vertex="1">
          <mxGeometry x="777.5" y="-230" width="205" height="20" as="geometry" />
        </mxCell>
        <mxCell id="AsPUvt-eo6z5Frqtc9Gu-18" value="L1" style="text;html=1;strokeColor=none;fillColor=none;align=center;verticalAlign=middle;whiteSpace=wrap;rounded=0;" parent="1" vertex="1">
          <mxGeometry x="1050" y="210" width="40" height="20" as="geometry" />
        </mxCell>
        <mxCell id="AsPUvt-eo6z5Frqtc9Gu-19" value="L2A" style="text;html=1;strokeColor=none;fillColor=none;align=center;verticalAlign=middle;whiteSpace=wrap;rounded=0;" parent="1" vertex="1">
          <mxGeometry x="1050" y="150" width="40" height="20" as="geometry" />
        </mxCell>
        <mxCell id="AsPUvt-eo6z5Frqtc9Gu-20" value="&lt;br&gt;&lt;br&gt;doris（&lt;font color=&quot;#ff0000&quot;&gt;现场计算&lt;/font&gt;）" style="shape=cylinder2;whiteSpace=wrap;html=1;boundedLbl=1;backgroundOutline=1;size=15;fillColor=#dae8fc;strokeColor=#6c8ebf;" parent="1" vertex="1">
          <mxGeometry x="1105" y="-60" width="220" height="170" as="geometry" />
        </mxCell>
        <mxCell id="AsPUvt-eo6z5Frqtc9Gu-21" value="配置+报表应用" style="ellipse;shape=cloud;whiteSpace=wrap;html=1;fillColor=#dae8fc;strokeColor=#6c8ebf;" parent="1" vertex="1">
          <mxGeometry x="1100" y="-130" width="230" height="60" as="geometry" />
        </mxCell>
        <mxCell id="AsPUvt-eo6z5Frqtc9Gu-22" value="&lt;font style=&quot;font-size: 15px&quot;&gt;&lt;b&gt;场景三：doris现场计算&lt;/b&gt;&lt;br&gt;&lt;/font&gt;" style="text;html=1;strokeColor=none;fillColor=none;align=center;verticalAlign=middle;whiteSpace=wrap;rounded=0;" parent="1" vertex="1">
          <mxGeometry x="1135" y="-230" width="160" height="20" as="geometry" />
        </mxCell>
        <mxCell id="AsPUvt-eo6z5Frqtc9Gu-23" value="原始数据层" style="text;html=1;strokeColor=none;fillColor=none;align=center;verticalAlign=middle;whiteSpace=wrap;rounded=0;" parent="1" vertex="1">
          <mxGeometry x="240" y="210" width="70" height="20" as="geometry" />
        </mxCell>
        <mxCell id="AsPUvt-eo6z5Frqtc9Gu-24" value="基础明细层" style="text;html=1;strokeColor=none;fillColor=none;align=center;verticalAlign=middle;whiteSpace=wrap;rounded=0;" parent="1" vertex="1">
          <mxGeometry x="240" y="160" width="70" height="20" as="geometry" />
        </mxCell>
        <mxCell id="AsPUvt-eo6z5Frqtc9Gu-25" value="明细汇总" style="text;html=1;strokeColor=none;fillColor=none;align=center;verticalAlign=middle;whiteSpace=wrap;rounded=0;" parent="1" vertex="1">
          <mxGeometry x="240" y="90" width="70" height="20" as="geometry" />
        </mxCell>
        <mxCell id="AsPUvt-eo6z5Frqtc9Gu-26" value="报表层" style="text;html=1;strokeColor=none;fillColor=none;align=center;verticalAlign=middle;whiteSpace=wrap;rounded=0;" parent="1" vertex="1">
          <mxGeometry x="240" y="40" width="70" height="20" as="geometry" />
        </mxCell>
        <mxCell id="AsPUvt-eo6z5Frqtc9Gu-27" value="PVMV" style="rounded=0;whiteSpace=wrap;html=1;" parent="1" vertex="1">
          <mxGeometry x="430" y="210" width="70" height="20" as="geometry" />
        </mxCell>
        <mxCell id="AsPUvt-eo6z5Frqtc9Gu-28" value="订单" style="rounded=0;whiteSpace=wrap;html=1;" parent="1" vertex="1">
          <mxGeometry x="520" y="210" width="70" height="20" as="geometry" />
        </mxCell>
        <mxCell id="AsPUvt-eo6z5Frqtc9Gu-29" value="曝光" style="rounded=0;whiteSpace=wrap;html=1;" parent="1" vertex="1">
          <mxGeometry x="410" y="150" width="40" height="20" as="geometry" />
        </mxCell>
        <mxCell id="AsPUvt-eo6z5Frqtc9Gu-30" value="点击" style="rounded=0;whiteSpace=wrap;html=1;" parent="1" vertex="1">
          <mxGeometry x="460" y="150" width="40" height="20" as="geometry" />
        </mxCell>
        <mxCell id="AsPUvt-eo6z5Frqtc9Gu-31" value="访问" style="rounded=0;whiteSpace=wrap;html=1;" parent="1" vertex="1">
          <mxGeometry x="510" y="150" width="40" height="20" as="geometry" />
        </mxCell>
        <mxCell id="AsPUvt-eo6z5Frqtc9Gu-32" value="支付" style="rounded=0;whiteSpace=wrap;html=1;" parent="1" vertex="1">
          <mxGeometry x="560" y="150" width="40" height="20" as="geometry" />
        </mxCell>
        <mxCell id="AsPUvt-eo6z5Frqtc9Gu-33" value="分析宽表" style="rounded=0;whiteSpace=wrap;html=1;" parent="1" vertex="1">
          <mxGeometry x="410" y="90" width="190" height="20" as="geometry" />
        </mxCell>
        <mxCell id="AsPUvt-eo6z5Frqtc9Gu-34" value="" style="rounded=0;whiteSpace=wrap;html=1;fillColor=#ffe6cc;strokeColor=#d79b00;" parent="1" vertex="1">
          <mxGeometry x="770" y="200" width="220" height="40" as="geometry" />
        </mxCell>
        <mxCell id="AsPUvt-eo6z5Frqtc9Gu-35" value="" style="rounded=0;whiteSpace=wrap;html=1;fillColor=#ffe6cc;strokeColor=#d79b00;" parent="1" vertex="1">
          <mxGeometry x="770" y="140" width="220" height="40" as="geometry" />
        </mxCell>
        <mxCell id="AsPUvt-eo6z5Frqtc9Gu-36" value="" style="rounded=0;whiteSpace=wrap;html=1;fillColor=#e1d5e7;strokeColor=#9673a6;" parent="1" vertex="1">
          <mxGeometry x="770" y="80" width="220" height="40" as="geometry" />
        </mxCell>
        <mxCell id="AsPUvt-eo6z5Frqtc9Gu-37" value="PVMV" style="rounded=0;whiteSpace=wrap;html=1;" parent="1" vertex="1">
          <mxGeometry x="800" y="210" width="70" height="20" as="geometry" />
        </mxCell>
        <mxCell id="AsPUvt-eo6z5Frqtc9Gu-38" value="订单" style="rounded=0;whiteSpace=wrap;html=1;" parent="1" vertex="1">
          <mxGeometry x="890" y="210" width="70" height="20" as="geometry" />
        </mxCell>
        <mxCell id="AsPUvt-eo6z5Frqtc9Gu-39" value="曝光" style="rounded=0;whiteSpace=wrap;html=1;" parent="1" vertex="1">
          <mxGeometry x="780" y="150" width="40" height="20" as="geometry" />
        </mxCell>
        <mxCell id="AsPUvt-eo6z5Frqtc9Gu-40" value="点击" style="rounded=0;whiteSpace=wrap;html=1;" parent="1" vertex="1">
          <mxGeometry x="830" y="150" width="40" height="20" as="geometry" />
        </mxCell>
        <mxCell id="AsPUvt-eo6z5Frqtc9Gu-41" value="访问" style="rounded=0;whiteSpace=wrap;html=1;" parent="1" vertex="1">
          <mxGeometry x="880" y="150" width="40" height="20" as="geometry" />
        </mxCell>
        <mxCell id="AsPUvt-eo6z5Frqtc9Gu-42" value="支付" style="rounded=0;whiteSpace=wrap;html=1;" parent="1" vertex="1">
          <mxGeometry x="930" y="150" width="40" height="20" as="geometry" />
        </mxCell>
        <mxCell id="AsPUvt-eo6z5Frqtc9Gu-43" value="分析宽表" style="rounded=0;whiteSpace=wrap;html=1;" parent="1" vertex="1">
          <mxGeometry x="780" y="90" width="190" height="20" as="geometry" />
        </mxCell>
        <mxCell id="AsPUvt-eo6z5Frqtc9Gu-44" value="" style="rounded=0;whiteSpace=wrap;html=1;fillColor=#ffe6cc;strokeColor=#d79b00;" parent="1" vertex="1">
          <mxGeometry x="1107" y="200" width="220" height="40" as="geometry" />
        </mxCell>
        <mxCell id="AsPUvt-eo6z5Frqtc9Gu-45" value="" style="rounded=0;whiteSpace=wrap;html=1;fillColor=#e1d5e7;strokeColor=#9673a6;" parent="1" vertex="1">
          <mxGeometry x="1107" y="140" width="220" height="40" as="geometry" />
        </mxCell>
        <mxCell id="AsPUvt-eo6z5Frqtc9Gu-46" value="PVMV" style="rounded=0;whiteSpace=wrap;html=1;" parent="1" vertex="1">
          <mxGeometry x="1137" y="210" width="70" height="20" as="geometry" />
        </mxCell>
        <mxCell id="AsPUvt-eo6z5Frqtc9Gu-47" value="订单" style="rounded=0;whiteSpace=wrap;html=1;" parent="1" vertex="1">
          <mxGeometry x="1227" y="210" width="70" height="20" as="geometry" />
        </mxCell>
        <mxCell id="AsPUvt-eo6z5Frqtc9Gu-48" value="曝光" style="rounded=0;whiteSpace=wrap;html=1;" parent="1" vertex="1">
          <mxGeometry x="1117" y="150" width="40" height="20" as="geometry" />
        </mxCell>
        <mxCell id="AsPUvt-eo6z5Frqtc9Gu-49" value="点击" style="rounded=0;whiteSpace=wrap;html=1;" parent="1" vertex="1">
          <mxGeometry x="1167" y="150" width="40" height="20" as="geometry" />
        </mxCell>
        <mxCell id="AsPUvt-eo6z5Frqtc9Gu-50" value="访问" style="rounded=0;whiteSpace=wrap;html=1;" parent="1" vertex="1">
          <mxGeometry x="1217" y="150" width="40" height="20" as="geometry" />
        </mxCell>
        <mxCell id="AsPUvt-eo6z5Frqtc9Gu-51" value="支付" style="rounded=0;whiteSpace=wrap;html=1;" parent="1" vertex="1">
          <mxGeometry x="1267" y="150" width="40" height="20" as="geometry" />
        </mxCell>
        <mxCell id="TSeb57XJcIcTalpkV33v-1" value="OLAP层" style="text;html=1;strokeColor=none;fillColor=none;align=center;verticalAlign=middle;whiteSpace=wrap;rounded=0;" vertex="1" parent="1">
          <mxGeometry x="245" y="-45" width="60" height="30" as="geometry" />
        </mxCell>
        <mxCell id="TSeb57XJcIcTalpkV33v-2" value="&lt;font style=&quot;font-size: 14px;&quot;&gt;OLAP层很薄：只做简单的取指标、衍生指标计算&lt;/font&gt;" style="text;html=1;strokeColor=none;fillColor=none;align=left;verticalAlign=middle;whiteSpace=wrap;rounded=0;" vertex="1" parent="1">
          <mxGeometry x="355" y="-210" width="310" height="60" as="geometry" />
        </mxCell>
        <mxCell id="TSeb57XJcIcTalpkV33v-3" value="应用层" style="text;html=1;strokeColor=none;fillColor=none;align=center;verticalAlign=middle;whiteSpace=wrap;rounded=0;" vertex="1" parent="1">
          <mxGeometry x="245" y="-115" width="60" height="30" as="geometry" />
        </mxCell>
        <mxCell id="TSeb57XJcIcTalpkV33v-4" value="&lt;font style=&quot;font-size: 14px;&quot;&gt;OLAP层：基于分析宽表对部分指标指标进行现场计算&lt;/font&gt;" style="text;html=1;strokeColor=none;fillColor=none;align=left;verticalAlign=middle;whiteSpace=wrap;rounded=0;" vertex="1" parent="1">
          <mxGeometry x="704.25" y="-210" width="341.5" height="60" as="geometry" />
        </mxCell>
        <mxCell id="TSeb57XJcIcTalpkV33v-5" value="&lt;font style=&quot;font-size: 14px;&quot;&gt;OLAP层：基于明细层数据现场计算&lt;/font&gt;" style="text;html=1;strokeColor=none;fillColor=none;align=left;verticalAlign=middle;whiteSpace=wrap;rounded=0;" vertex="1" parent="1">
          <mxGeometry x="1100.5" y="-210" width="233" height="60" as="geometry" />
        </mxCell>
      </root>
    </mxGraphModel>
  </diagram>
</mxfile>
